<svg width="16" height="17" xmlns="http://www.w3.org/2000/svg"><defs><clipPath id="a"><path d="M1170 0v5046H0V0h1170z"/></clipPath><clipPath id="b"><path d="M8.348 0a4.985 4.985 0 014.985 4.985v1.363a4.986 4.986 0 01-2.653 4.408v1.911a.667.667 0 01-.982.587l-.071-.044-2.636-1.877H4.985A4.985 4.985 0 010 6.348V4.985A4.985 4.985 0 014.985 0h3.363zM3.5 5a.833.833 0 100 1.667A.833.833 0 003.5 5zm3 0a.833.833 0 100 1.667A.833.833 0 006.5 5zm3 0a.833.833 0 100 1.667A.833.833 0 009.5 5z"/></clipPath></defs><g clip-path="url(#a)" transform="translate(-143 -848)"><g clip-path="url(#b)" transform="translate(144.333 849.86)"><path fill="#C5C5C5" d="M0 0h13.333v13.334H0V0z"/></g></g></svg>